<mxfile host="app.diagrams.net" modified="2023-07-05T09:06:54.978Z" agent="Mozilla/5.0 (X11; Ubuntu; Linux x86_64; rv:109.0) Gecko/20100101 Firefox/114.0" etag="JhgulvGm_ipE83lfIjtQ" version="21.5.2" type="device">
  <diagram name="Page-1" id="FFhLz_GkqTmdQcJuZYdn">
    <mxGraphModel dx="354" dy="763" grid="1" gridSize="10" guides="1" tooltips="1" connect="1" arrows="1" fold="1" page="1" pageScale="1" pageWidth="827" pageHeight="1169" math="0" shadow="0">
      <root>
        <mxCell id="0" />
        <mxCell id="1" parent="0" />
        <mxCell id="_7Ua9gADsvs0cXBSn76g-143" value="&lt;font style=&quot;font-size: 15px;&quot;&gt;&lt;span style=&quot;font-family: &amp;quot;Helvetica Neue&amp;quot;, Helvetica, &amp;quot;Segoe UI&amp;quot;, Arial, freesans, sans-serif; font-size: 15px; font-style: normal; font-variant-ligatures: normal; font-variant-caps: normal; font-weight: 400; letter-spacing: normal; text-align: start; text-indent: 0px; text-transform: none; word-spacing: 0px; -webkit-text-stroke-width: 0px; text-decoration-thickness: initial; text-decoration-style: initial; text-decoration-color: initial; display: inline !important; float: none;&quot;&gt;Number&lt;/span&gt;&lt;/font&gt;" style="rounded=1;whiteSpace=wrap;html=1;labelBackgroundColor=none;fontSize=15;fillColor=#7AAD4C;strokeColor=#95F03A;fontColor=#000000;" vertex="1" parent="1">
          <mxGeometry x="130" y="180" width="120" height="50" as="geometry" />
        </mxCell>
        <mxCell id="_7Ua9gADsvs0cXBSn76g-144" value="&lt;font style=&quot;font-size: 15px;&quot;&gt;&lt;span style=&quot;font-family: &amp;quot;Helvetica Neue&amp;quot;, Helvetica, &amp;quot;Segoe UI&amp;quot;, Arial, freesans, sans-serif; font-size: 15px; font-style: normal; font-variant-ligatures: normal; font-variant-caps: normal; font-weight: 400; letter-spacing: normal; text-align: start; text-indent: 0px; text-transform: none; word-spacing: 0px; -webkit-text-stroke-width: 0px; text-decoration-thickness: initial; text-decoration-style: initial; text-decoration-color: initial; display: inline !important; float: none;&quot;&gt;BigInt&lt;/span&gt;&lt;/font&gt;" style="rounded=1;whiteSpace=wrap;html=1;labelBackgroundColor=none;fontSize=15;fillColor=#7AAD4C;strokeColor=#95F03A;fontColor=#000000;" vertex="1" parent="1">
          <mxGeometry x="130" y="240" width="120" height="50" as="geometry" />
        </mxCell>
        <mxCell id="_7Ua9gADsvs0cXBSn76g-145" value="&lt;span style=&quot;font-family: &amp;quot;Helvetica Neue&amp;quot;, Helvetica, &amp;quot;Segoe UI&amp;quot;, Arial, freesans, sans-serif; font-size: 15px; font-style: normal; font-variant-ligatures: normal; font-variant-caps: normal; font-weight: 400; letter-spacing: normal; text-align: start; text-indent: 0px; text-transform: none; word-spacing: 0px; -webkit-text-stroke-width: 0px; text-decoration-thickness: initial; text-decoration-style: initial; text-decoration-color: initial; display: inline !important; float: none;&quot;&gt;String&lt;/span&gt;" style="rounded=1;whiteSpace=wrap;html=1;fontColor=#000000;labelBackgroundColor=none;fontSize=15;fillColor=#7AAD4C;strokeColor=#95F03A;" vertex="1" parent="1">
          <mxGeometry x="130" y="300" width="120" height="50" as="geometry" />
        </mxCell>
        <mxCell id="_7Ua9gADsvs0cXBSn76g-146" value="&lt;span style=&quot;font-family: &amp;quot;Helvetica Neue&amp;quot;, Helvetica, &amp;quot;Segoe UI&amp;quot;, Arial, freesans, sans-serif; font-size: 15px; font-style: normal; font-variant-ligatures: normal; font-variant-caps: normal; font-weight: 400; letter-spacing: normal; text-align: start; text-indent: 0px; text-transform: none; word-spacing: 0px; -webkit-text-stroke-width: 0px; text-decoration-thickness: initial; text-decoration-style: initial; text-decoration-color: initial; display: inline !important; float: none;&quot;&gt;Boolean&lt;/span&gt;" style="rounded=1;whiteSpace=wrap;html=1;labelBackgroundColor=none;fontSize=15;fillColor=#7AAD4C;strokeColor=#95F03A;fontColor=#000000;" vertex="1" parent="1">
          <mxGeometry x="130" y="360" width="120" height="50" as="geometry" />
        </mxCell>
        <mxCell id="_7Ua9gADsvs0cXBSn76g-147" value="Undefined" style="rounded=1;whiteSpace=wrap;html=1;labelBackgroundColor=none;fontSize=15;fillColor=#7AAD4C;strokeColor=#95F03A;fontColor=#000000;" vertex="1" parent="1">
          <mxGeometry x="130" y="420" width="120" height="50" as="geometry" />
        </mxCell>
        <mxCell id="_7Ua9gADsvs0cXBSn76g-148" value="Null" style="rounded=1;whiteSpace=wrap;html=1;labelBackgroundColor=none;fontSize=15;strokeColor=#95F03A;fontColor=#000000;fillColor=none;" vertex="1" parent="1">
          <mxGeometry x="130" y="480" width="120" height="50" as="geometry" />
        </mxCell>
        <mxCell id="_7Ua9gADsvs0cXBSn76g-149" value="Array" style="rounded=1;whiteSpace=wrap;html=1;fontSize=15;labelBackgroundColor=none;strokeColor=#95F03A;fontColor=#000000;fillColor=none;" vertex="1" parent="1">
          <mxGeometry x="130" y="540" width="120" height="50" as="geometry" />
        </mxCell>
        <mxCell id="_7Ua9gADsvs0cXBSn76g-150" value="Objeto" style="rounded=1;whiteSpace=wrap;html=1;fontSize=15;labelBackgroundColor=none;strokeColor=#95F03A;fontColor=#000000;fillColor=none;" vertex="1" parent="1">
          <mxGeometry x="130" y="600" width="120" height="50" as="geometry" />
        </mxCell>
        <mxCell id="_7Ua9gADsvs0cXBSn76g-151" value="Symbol" style="rounded=1;whiteSpace=wrap;html=1;fontSize=15;labelBackgroundColor=none;strokeColor=#95F03A;fontColor=#000000;fillColor=none;" vertex="1" parent="1">
          <mxGeometry x="130" y="660" width="120" height="50" as="geometry" />
        </mxCell>
        <mxCell id="_7Ua9gADsvs0cXBSn76g-152" value="Tipo de dato" style="rounded=1;whiteSpace=wrap;html=1;fontSize=18;strokeColor=#32B3C7;fontColor=#000000;fillColor=none;" vertex="1" parent="1">
          <mxGeometry x="130" y="120" width="120" height="40" as="geometry" />
        </mxCell>
        <mxCell id="_7Ua9gADsvs0cXBSn76g-161" value="Descripción" style="rounded=1;whiteSpace=wrap;html=1;fontSize=18;strokeColor=#32B3C7;fontColor=#000000;fillColor=none;" vertex="1" parent="1">
          <mxGeometry x="274" y="120" width="280" height="40" as="geometry" />
        </mxCell>
        <mxCell id="_7Ua9gADsvs0cXBSn76g-162" value="Ejemplo" style="rounded=1;whiteSpace=wrap;html=1;fontSize=18;strokeColor=#32B3C7;fontColor=#000000;fillColor=none;" vertex="1" parent="1">
          <mxGeometry x="580" y="120" width="120" height="40" as="geometry" />
        </mxCell>
        <mxCell id="_7Ua9gADsvs0cXBSn76g-163" value="Representa valores numéricos, ya sean enteros o decimales." style="rounded=1;whiteSpace=wrap;html=1;fillColor=#7AAD4C;strokeColor=#95F03A;fontColor=#000000;" vertex="1" parent="1">
          <mxGeometry x="274" y="175" width="280" height="55" as="geometry" />
        </mxCell>
        <mxCell id="_7Ua9gADsvs0cXBSn76g-164" value="Representa valores numéricos grandes." style="rounded=1;whiteSpace=wrap;html=1;fillColor=#7AAD4C;strokeColor=#95F03A;fontColor=#000000;" vertex="1" parent="1">
          <mxGeometry x="274" y="240" width="280" height="50" as="geometry" />
        </mxCell>
        <mxCell id="_7Ua9gADsvs0cXBSn76g-165" value="Representa una secuencia de caracteres.&amp;nbsp;&amp;nbsp;&amp;nbsp; " style="rounded=1;whiteSpace=wrap;html=1;fillColor=#7AAD4C;strokeColor=#95F03A;fontColor=#000000;" vertex="1" parent="1">
          <mxGeometry x="274" y="300" width="280" height="50" as="geometry" />
        </mxCell>
        <mxCell id="_7Ua9gADsvs0cXBSn76g-166" value="Representa un valor de verdadero (true) o falso (false).&amp;nbsp;&amp;nbsp;&amp;nbsp; " style="rounded=1;whiteSpace=wrap;html=1;fillColor=#7AAD4C;strokeColor=#95F03A;fontColor=#000000;" vertex="1" parent="1">
          <mxGeometry x="274" y="360" width="280" height="50" as="geometry" />
        </mxCell>
        <mxCell id="_7Ua9gADsvs0cXBSn76g-167" value="Indica que una variable no tiene un valor asignado." style="rounded=1;whiteSpace=wrap;html=1;fillColor=#7AAD4C;strokeColor=#95F03A;fontColor=#000000;" vertex="1" parent="1">
          <mxGeometry x="274" y="420" width="280" height="50" as="geometry" />
        </mxCell>
        <mxCell id="_7Ua9gADsvs0cXBSn76g-168" value="Representa la ausencia intencional de cualquier objeto o valor." style="rounded=1;whiteSpace=wrap;html=1;strokeColor=#95F03A;fontColor=#000000;fillColor=none;" vertex="1" parent="1">
          <mxGeometry x="274" y="480" width="280" height="50" as="geometry" />
        </mxCell>
        <mxCell id="_7Ua9gADsvs0cXBSn76g-169" value="Representa una colección ordenada de elementos." style="rounded=1;whiteSpace=wrap;html=1;strokeColor=#95F03A;fontColor=#000000;fillColor=none;" vertex="1" parent="1">
          <mxGeometry x="274" y="540" width="280" height="50" as="geometry" />
        </mxCell>
        <mxCell id="_7Ua9gADsvs0cXBSn76g-170" value="Representa una entidad con propiedades y valores asociados." style="rounded=1;whiteSpace=wrap;html=1;strokeColor=#95F03A;fontColor=#000000;fillColor=none;" vertex="1" parent="1">
          <mxGeometry x="274" y="600" width="280" height="50" as="geometry" />
        </mxCell>
        <mxCell id="_7Ua9gADsvs0cXBSn76g-171" value="Representa un valor único" style="rounded=1;whiteSpace=wrap;html=1;strokeColor=#95F03A;fontColor=#000000;fillColor=none;" vertex="1" parent="1">
          <mxGeometry x="274" y="660" width="280" height="50" as="geometry" />
        </mxCell>
        <mxCell id="_7Ua9gADsvs0cXBSn76g-178" value="&lt;font&gt;42, 3.14&lt;/font&gt;" style="rounded=1;whiteSpace=wrap;html=1;fillColor=#7AAD4C;strokeColor=#95F03A;fontColor=#000000;" vertex="1" parent="1">
          <mxGeometry x="580" y="177.5" width="120" height="50" as="geometry" />
        </mxCell>
        <mxCell id="_7Ua9gADsvs0cXBSn76g-179" value="&lt;span style=&quot;font-family: &amp;quot;Helvetica Neue&amp;quot;, Helvetica, &amp;quot;Segoe UI&amp;quot;, Arial, freesans, sans-serif; font-size: 16px; font-style: normal; font-variant-ligatures: normal; font-variant-caps: normal; font-weight: 400; letter-spacing: normal; text-align: start; text-indent: 0px; text-transform: none; word-spacing: 0px; -webkit-text-stroke-width: 0px; text-decoration-thickness: initial; text-decoration-style: initial; text-decoration-color: initial; display: inline !important; float: none;&quot;&gt;String&lt;/span&gt;" style="rounded=1;whiteSpace=wrap;html=1;fontColor=#000000;fillColor=#7AAD4C;strokeColor=#95F03A;" vertex="1" parent="1">
          <mxGeometry x="580" y="240" width="120" height="50" as="geometry" />
        </mxCell>
        <mxCell id="_7Ua9gADsvs0cXBSn76g-180" value="&#39;Hola&#39;, &quot;Mundo&quot;" style="rounded=1;whiteSpace=wrap;html=1;fillColor=#7AAD4C;strokeColor=#95F03A;fontColor=#000000;" vertex="1" parent="1">
          <mxGeometry x="580" y="300" width="120" height="50" as="geometry" />
        </mxCell>
        <mxCell id="_7Ua9gADsvs0cXBSn76g-181" value="&amp;nbsp;&amp;nbsp;&amp;nbsp; true, false" style="rounded=1;whiteSpace=wrap;html=1;fillColor=#7AAD4C;strokeColor=#95F03A;fontColor=#000000;" vertex="1" parent="1">
          <mxGeometry x="580" y="360" width="120" height="50" as="geometry" />
        </mxCell>
        <mxCell id="_7Ua9gADsvs0cXBSn76g-182" value="undefined" style="rounded=1;whiteSpace=wrap;html=1;fillColor=#7AAD4C;strokeColor=#95F03A;fontColor=#000000;" vertex="1" parent="1">
          <mxGeometry x="580" y="420" width="120" height="50" as="geometry" />
        </mxCell>
        <mxCell id="_7Ua9gADsvs0cXBSn76g-183" value="null" style="rounded=1;whiteSpace=wrap;html=1;strokeColor=#95F03A;fontColor=#000000;fillColor=none;" vertex="1" parent="1">
          <mxGeometry x="580" y="480" width="120" height="50" as="geometry" />
        </mxCell>
        <mxCell id="_7Ua9gADsvs0cXBSn76g-184" value="[1, 2, 3]" style="rounded=1;whiteSpace=wrap;html=1;strokeColor=#95F03A;fontColor=#000000;fillColor=none;" vertex="1" parent="1">
          <mxGeometry x="580" y="540" width="120" height="50" as="geometry" />
        </mxCell>
        <mxCell id="_7Ua9gADsvs0cXBSn76g-185" value="{ nombre: &#39;Juan&#39;, edad: 25 }" style="rounded=1;whiteSpace=wrap;html=1;strokeColor=#95F03A;fontColor=#000000;fillColor=none;" vertex="1" parent="1">
          <mxGeometry x="580" y="600" width="120" height="50" as="geometry" />
        </mxCell>
        <mxCell id="_7Ua9gADsvs0cXBSn76g-186" value="Symbol(1)" style="rounded=1;whiteSpace=wrap;html=1;strokeColor=#95F03A;fontColor=#000000;fillColor=none;" vertex="1" parent="1">
          <mxGeometry x="580" y="660" width="120" height="50" as="geometry" />
        </mxCell>
      </root>
    </mxGraphModel>
  </diagram>
</mxfile>
